<?xml version="1.0" encoding="UTF-8"?>
<!DOCTYPE svg PUBLIC "-//W3C//DTD SVG 1.1//EN" "http://www.w3.org/Graphics/SVG/1.1/DTD/svg11.dtd">
<svg xmlns="http://www.w3.org/2000/svg" version="1.1" width="512px" height="512px" style="shape-rendering:geometricPrecision; text-rendering:geometricPrecision; image-rendering:optimizeQuality; fill-rule:evenodd; clip-rule:evenodd" xmlns:xlink="http://www.w3.org/1999/xlink">
<g><path style="opacity:0.996" fill="#2d2d2d" d="M 110.5,-0.5 C 207.167,-0.5 303.833,-0.5 400.5,-0.5C 446.504,2.57791 480.004,24.5779 501,65.5C 506.582,80.1508 510.082,95.1508 511.5,110.5C 511.5,126.5 511.5,142.5 511.5,158.5C 472.167,158.5 432.833,158.5 393.5,158.5C 394.25,150.243 398.583,144.743 406.5,142C 418.456,139.032 428.622,141.865 437,150.5C 437.748,152.332 438.748,153.999 440,155.5C 440.83,149.472 440.664,143.472 439.5,137.5C 437.979,138.937 436.145,139.604 434,139.5C 421.248,136.455 408.414,135.955 395.5,138C 384.626,141.043 377.626,147.876 374.5,158.5C 371.5,158.5 368.5,158.5 365.5,158.5C 365.784,160.415 365.451,162.081 364.5,163.5C 365.637,147.798 358.303,139.298 342.5,138C 324.158,137.167 305.824,137.334 287.5,138.5C 290.079,138.915 291.913,140.248 293,142.5C 293.499,147.823 293.666,153.156 293.5,158.5C 288.5,158.5 283.5,158.5 278.5,158.5C 271.261,149.11 261.927,142.61 250.5,139C 230.855,137.272 211.189,137.105 191.5,138.5C 194.463,139.629 196.629,141.629 198,144.5C 198.499,150.157 198.666,155.824 198.5,161.5C 197.596,160.791 197.263,159.791 197.5,158.5C 190.167,158.5 182.833,158.5 175.5,158.5C 176.484,147.982 171.818,143.482 161.5,145C 163.871,137.245 161.038,132.745 153,131.5C 145.93,134.19 138.763,136.69 131.5,139C 116.651,141.47 102.651,139.137 89.5,132C 84.0618,131.067 80.2284,133.234 78,138.5C 77.3131,140.568 77.4798,142.568 78.5,144.5C 71.137,143.367 66.4704,146.533 64.5,154C 64.7728,155.533 65.1062,157.033 65.5,158.5C 43.5,158.5 21.5,158.5 -0.5,158.5C -0.5,142.5 -0.5,126.5 -0.5,110.5C 2.57791,64.4962 24.5779,30.9962 65.5,10C 80.1508,4.41844 95.1508,0.918444 110.5,-0.5 Z"/></g>
<g><path style="opacity:1" fill="#eb2822" d="M 175.5,158.5 C 165.045,177.573 164.878,196.907 175,216.5C 176.471,227.029 171.971,231.529 161.5,230C 163.807,237.752 160.974,242.252 153,243.5C 145.93,240.81 138.763,238.31 131.5,236C 116.651,233.53 102.651,235.863 89.5,243C 84.0618,243.933 80.2284,241.766 78,236.5C 77.3131,234.432 77.4798,232.432 78.5,230.5C 72.461,231.562 67.961,229.229 65,223.5C 64.3333,221.5 64.3333,219.5 65,217.5C 74.7093,197.832 74.876,178.165 65.5,158.5C 65.1062,157.033 64.7728,155.533 64.5,154C 66.4704,146.533 71.137,143.367 78.5,144.5C 77.4798,142.568 77.3131,140.568 78,138.5C 80.2284,133.234 84.0618,131.067 89.5,132C 102.651,139.137 116.651,141.47 131.5,139C 138.763,136.69 145.93,134.19 153,131.5C 161.038,132.745 163.871,137.245 161.5,145C 171.818,143.482 176.484,147.982 175.5,158.5 Z"/></g>
<g><path style="opacity:1" fill="#f9f9f9" d="M 393.5,158.5 C 393.311,163.436 394.977,167.602 398.5,171C 410.009,175.461 421.675,179.461 433.5,183C 444.409,190.327 448.575,200.494 446,213.5C 442.107,228.052 432.607,236.219 417.5,238C 404.765,239.299 392.265,238.132 380,234.5C 378.289,234.439 376.956,235.106 376,236.5C 375.333,230.167 375.333,223.833 376,217.5C 378.416,224.648 383.249,229.481 390.5,232C 400.103,234.504 409.436,233.838 418.5,230C 425.685,223.78 428.519,215.947 427,206.5C 425.6,203.098 423.433,200.264 420.5,198C 411.845,195.336 403.178,192.669 394.5,190C 379.912,184.57 373.245,174.07 374.5,158.5C 377.626,147.876 384.626,141.043 395.5,138C 408.414,135.955 421.248,136.455 434,139.5C 436.145,139.604 437.979,138.937 439.5,137.5C 440.664,143.472 440.83,149.472 440,155.5C 438.748,153.999 437.748,152.332 437,150.5C 428.622,141.865 418.456,139.032 406.5,142C 398.583,144.743 394.25,150.243 393.5,158.5 Z"/></g>
<g><path style="opacity:1" fill="#fbfbfb" d="M 278.5,158.5 C 286.845,175.406 287.679,192.739 281,210.5C 274.454,224.047 263.954,232.88 249.5,237C 229.825,237.833 210.158,237.666 190.5,236.5C 195.847,235.318 198.347,231.984 198,226.5C 198.5,204.836 198.667,183.169 198.5,161.5C 198.666,155.824 198.499,150.157 198,144.5C 196.629,141.629 194.463,139.629 191.5,138.5C 211.189,137.105 230.855,137.272 250.5,139C 261.927,142.61 271.261,149.11 278.5,158.5 Z"/></g>
<g><path style="opacity:1" fill="#f8f8f8" d="M 364.5,163.5 C 362.288,173.552 356.288,180.385 346.5,184C 369.6,191.692 376.1,206.525 366,228.5C 361.4,233.05 355.9,235.884 349.5,237C 328.492,237.833 307.492,237.666 286.5,236.5C 289.688,236.144 291.855,234.477 293,231.5C 293.5,207.169 293.667,182.836 293.5,158.5C 293.666,153.156 293.499,147.823 293,142.5C 291.913,140.248 290.079,138.915 287.5,138.5C 305.824,137.334 324.158,137.167 342.5,138C 358.303,139.298 365.637,147.798 364.5,163.5 Z"/></g>
<g><path style="opacity:1" fill="#fba59f" d="M 92.5,158.5 C 91.8333,158.5 91.5,158.833 91.5,159.5C 88.9265,158.121 87.4265,156.121 87,153.5C 88.7297,155.402 90.563,157.069 92.5,158.5 Z"/></g>
<g><path style="opacity:1" fill="#282828" d="M -0.5,158.5 C 21.5,158.5 43.5,158.5 65.5,158.5C 74.876,178.165 74.7093,197.832 65,217.5C 64.3333,219.5 64.3333,221.5 65,223.5C 67.961,229.229 72.461,231.562 78.5,230.5C 77.4798,232.432 77.3131,234.432 78,236.5C 80.2284,241.766 84.0618,243.933 89.5,243C 102.651,235.863 116.651,233.53 131.5,236C 138.763,238.31 145.93,240.81 153,243.5C 160.974,242.252 163.807,237.752 161.5,230C 171.971,231.529 176.471,227.029 175,216.5C 164.878,196.907 165.045,177.573 175.5,158.5C 182.833,158.5 190.167,158.5 197.5,158.5C 197.263,159.791 197.596,160.791 198.5,161.5C 198.667,183.169 198.5,204.836 198,226.5C 198.347,231.984 195.847,235.318 190.5,236.5C 210.158,237.666 229.825,237.833 249.5,237C 263.954,232.88 274.454,224.047 281,210.5C 287.679,192.739 286.845,175.406 278.5,158.5C 283.5,158.5 288.5,158.5 293.5,158.5C 293.667,182.836 293.5,207.169 293,231.5C 291.855,234.477 289.688,236.144 286.5,236.5C 307.492,237.666 328.492,237.833 349.5,237C 355.9,235.884 361.4,233.05 366,228.5C 376.1,206.525 369.6,191.692 346.5,184C 356.288,180.385 362.288,173.552 364.5,163.5C 365.451,162.081 365.784,160.415 365.5,158.5C 368.5,158.5 371.5,158.5 374.5,158.5C 373.245,174.07 379.912,184.57 394.5,190C 403.178,192.669 411.845,195.336 420.5,198C 423.433,200.264 425.6,203.098 427,206.5C 428.519,215.947 425.685,223.78 418.5,230C 409.436,233.838 400.103,234.504 390.5,232C 383.249,229.481 378.416,224.648 376,217.5C 375.333,223.833 375.333,230.167 376,236.5C 376.956,235.106 378.289,234.439 380,234.5C 392.265,238.132 404.765,239.299 417.5,238C 432.607,236.219 442.107,228.052 446,213.5C 448.575,200.494 444.409,190.327 433.5,183C 421.675,179.461 410.009,175.461 398.5,171C 394.977,167.602 393.311,163.436 393.5,158.5C 432.833,158.5 472.167,158.5 511.5,158.5C 511.5,223.5 511.5,288.5 511.5,353.5C 481.833,353.5 452.167,353.5 422.5,353.5C 431.374,335.414 438.874,316.747 445,297.5C 447.085,288.58 443.918,285.747 435.5,289C 434,290.5 432.5,292 431,293.5C 427,308.167 423,322.833 419,337.5C 417.905,342.78 417.405,348.113 417.5,353.5C 412.637,353.181 407.97,353.514 403.5,354.5C 402.064,352.681 400.397,352.348 398.5,353.5C 397.375,359.601 394.375,364.434 389.5,368C 386.443,368.554 384.276,367.387 383,364.5C 381.544,358.903 381.211,353.237 382,347.5C 384.102,333.594 386.602,319.76 389.5,306C 389.561,304.289 388.894,302.956 387.5,302C 384.691,300.342 381.691,299.175 378.5,298.5C 374.197,300.639 371.03,303.972 369,308.5C 363.61,319.837 359.11,331.504 355.5,343.5C 354.532,341.393 354.198,339.059 354.5,336.5C 356.465,315.654 359.631,294.988 364,274.5C 365.736,265.902 362.236,262.068 353.5,263C 352.107,264.171 351.273,265.671 351,267.5C 345.756,296.939 342.423,326.606 341,356.5C 340.061,363.457 336.227,366.624 329.5,366C 328.299,365.097 327.465,363.931 327,362.5C 326.189,345.2 328.689,328.366 334.5,312C 333.571,309.091 331.571,307.925 328.5,308.5C 328.243,301.406 324.576,297.239 317.5,296C 309.032,294.815 302.199,297.649 297,304.5C 287.05,319.299 282.883,335.633 284.5,353.5C 272.087,353.187 259.753,353.521 247.5,354.5C 251.444,327.886 256.111,301.386 261.5,275C 261.561,273.289 260.894,271.956 259.5,271C 257.275,269.869 254.942,269.036 252.5,268.5C 250.575,268.59 249.408,269.59 249,271.5C 243.369,300.125 238.869,328.791 235.5,357.5C 235.5,356.167 235.5,354.833 235.5,353.5C 231.167,353.5 226.833,353.5 222.5,353.5C 222.737,354.791 222.404,355.791 221.5,356.5C 223.068,342.896 225.901,329.563 230,316.5C 231.081,311.53 231.414,306.53 231,301.5C 228.046,298.257 224.546,297.257 220.5,298.5C 220,299.5 219.5,300.5 219,301.5C 215.591,316.696 212.924,332.029 211,347.5C 209.551,352.399 207.551,357.065 205,361.5C 203.967,364.033 202.133,365.699 199.5,366.5C 198.522,366.023 197.689,365.357 197,364.5C 196.333,357.5 196.333,350.5 197,343.5C 199.376,330.013 202.043,316.68 205,303.5C 201.82,299.328 198.153,298.662 194,301.5C 186.842,321.277 183.842,341.61 185,362.5C 181.686,366.732 177.853,367.398 173.5,364.5C 172.049,361.164 171.383,357.664 171.5,354C 173.218,340.131 175.885,326.464 179.5,313C 179.211,309.346 177.211,307.846 173.5,308.5C 173.274,299.677 168.607,295.344 159.5,295.5C 152.149,296.094 146.316,299.428 142,305.5C 132.579,320.095 128.412,336.095 129.5,353.5C 116.5,353.5 103.5,353.5 90.5,353.5C 91.4266,347.866 92.0933,342.199 92.5,336.5C 119.872,333.298 133.039,317.965 132,290.5C 124.733,275.02 112.4,267.687 95,268.5C 83.272,267.531 73.6053,271.531 66,280.5C 63.3355,283.376 63.1689,286.21 65.5,289C 67.8333,290.5 70.1667,292 72.5,293.5C 80.403,278.352 92.7363,273.185 109.5,278C 119.66,283.166 123.16,291.333 120,302.5C 116.505,315.829 108.005,323.829 94.5,326.5C 95.6847,312.89 97.6847,299.39 100.5,286C 100.646,283.812 99.646,282.479 97.5,282C 95.1667,281.333 92.8333,281.333 90.5,282C 86.379,297.225 83.7124,312.725 82.5,328.5C 79.1351,328.745 75.9684,328.078 73,326.5C 69.2007,328.846 68.7007,331.68 71.5,335C 74.5,335.833 77.5,336.667 80.5,337.5C 79.4971,342.863 78.4971,348.196 77.5,353.5C 51.5,353.5 25.5,353.5 -0.5,353.5C -0.5,288.5 -0.5,223.5 -0.5,158.5 Z"/></g>
<g><path style="opacity:1" fill="#2b2b2b" d="M 218.5,141.5 C 240.57,138.938 255.403,147.938 263,168.5C 268.692,186.409 267.359,203.742 259,220.5C 256.031,225.473 251.864,228.973 246.5,231C 237.956,233.242 229.289,233.909 220.5,233C 219.069,232.535 217.903,231.701 217,230.5C 216.333,201.5 216.333,172.5 217,143.5C 217.717,142.956 218.217,142.289 218.5,141.5 Z"/></g>
<g><path style="opacity:1" fill="#2c2c2c" d="M 314.5,141.5 C 339.967,138.451 349.467,149.118 343,173.5C 337.004,180.117 329.504,183.784 320.5,184.5C 348.064,186.651 357.231,200.651 348,226.5C 346.062,229.106 343.562,230.939 340.5,232C 331.887,233.505 323.22,233.839 314.5,233C 314,232.5 313.5,232 313,231.5C 312.368,201.42 312.868,171.42 314.5,141.5 Z"/></g>
<g><path style="opacity:1" fill="#fff5f4" d="M 91.5,159.5 C 91.5,158.833 91.8333,158.5 92.5,158.5C 99.6675,164.832 107.001,170.998 114.5,177C 118.997,179.121 123.33,178.788 127.5,176C 135.76,168.951 143.927,161.784 152,154.5C 152.667,155.167 152.667,155.833 152,156.5C 142.965,165.853 135.131,176.019 128.5,187C 129.327,190.488 130.827,193.654 133,196.5C 139.382,204.093 145.882,211.593 152.5,219C 151.833,219.667 151.167,219.667 150.5,219C 142.646,212.569 134.98,205.903 127.5,199C 123.33,196.212 118.997,195.879 114.5,198C 106.333,204.833 98.1667,211.667 90,218.5C 89.3333,217.833 89.3333,217.167 90,216.5C 96.3333,209.167 102.667,201.833 109,194.5C 112.333,189.833 112.333,185.167 109,180.5C 102.682,173.839 96.8487,166.839 91.5,159.5 Z"/></g>
<g><path style="opacity:1" fill="#f9f9f9" d="M 354.5,336.5 C 353.2,339.024 353.2,341.691 354.5,344.5C 355.107,344.376 355.44,344.043 355.5,343.5C 359.11,331.504 363.61,319.837 369,308.5C 371.03,303.972 374.197,300.639 378.5,298.5C 381.691,299.175 384.691,300.342 387.5,302C 388.894,302.956 389.561,304.289 389.5,306C 386.602,319.76 384.102,333.594 382,347.5C 381.211,353.237 381.544,358.903 383,364.5C 384.276,367.387 386.443,368.554 389.5,368C 394.375,364.434 397.375,359.601 398.5,353.5C 400.397,352.348 402.064,352.681 403.5,354.5C 403.504,362.657 400.171,369.157 393.5,374C 379.542,379.423 371.375,374.59 369,359.5C 367.944,347.778 369.111,336.278 372.5,325C 372.167,324.5 371.833,324 371.5,323.5C 367.525,330.454 364.358,337.787 362,345.5C 358.743,356.369 355.909,367.203 353.5,378C 347.657,378.522 343.49,376.022 341,370.5C 332.15,379.395 324.817,378.395 319,367.5C 314.191,375.885 307.024,379.051 297.5,377C 288.956,371.567 284.623,363.734 284.5,353.5C 282.883,335.633 287.05,319.299 297,304.5C 302.199,297.649 309.032,294.815 317.5,296C 324.576,297.239 328.243,301.406 328.5,308.5C 331.571,307.925 333.571,309.091 334.5,312C 328.689,328.366 326.189,345.2 327,362.5C 327.465,363.931 328.299,365.097 329.5,366C 336.227,366.624 340.061,363.457 341,356.5C 342.423,326.606 345.756,296.939 351,267.5C 351.273,265.671 352.107,264.171 353.5,263C 362.236,262.068 365.736,265.902 364,274.5C 359.631,294.988 356.465,315.654 354.5,336.5 Z"/></g>
<g><path style="opacity:1" fill="#f8f8f8" d="M 90.5,353.5 C 90.2051,357.898 89.5385,362.231 88.5,366.5C 90.4346,367.068 91.7679,368.235 92.5,370C 91.1948,373.582 89.6948,377.082 88,380.5C 84.1996,384.224 80.1996,384.224 76,380.5C 76.2479,371.506 76.7479,362.506 77.5,353.5C 78.4971,348.196 79.4971,342.863 80.5,337.5C 77.5,336.667 74.5,335.833 71.5,335C 68.7007,331.68 69.2007,328.846 73,326.5C 75.9684,328.078 79.1351,328.745 82.5,328.5C 83.7124,312.725 86.379,297.225 90.5,282C 92.8333,281.333 95.1667,281.333 97.5,282C 99.646,282.479 100.646,283.812 100.5,286C 97.6847,299.39 95.6847,312.89 94.5,326.5C 108.005,323.829 116.505,315.829 120,302.5C 123.16,291.333 119.66,283.166 109.5,278C 92.7363,273.185 80.403,278.352 72.5,293.5C 70.1667,292 67.8333,290.5 65.5,289C 63.1689,286.21 63.3355,283.376 66,280.5C 73.6053,271.531 83.272,267.531 95,268.5C 112.4,267.687 124.733,275.02 132,290.5C 133.039,317.965 119.872,333.298 92.5,336.5C 92.0933,342.199 91.4266,347.866 90.5,353.5 Z"/></g>
<g><path style="opacity:1" fill="#f9f9f9" d="M 247.5,354.5 C 247.002,358.575 247.002,362.575 247.5,366.5C 258.92,362.741 270.587,361.741 282.5,363.5C 284.951,366.4 286.285,369.734 286.5,373.5C 272.721,374.264 259.054,375.931 245.5,378.5C 245.5,380.5 245.5,382.5 245.5,384.5C 243.473,384.662 241.473,384.495 239.5,384C 237.043,382.438 234.376,381.438 231.5,381C 225.331,375.157 226.331,371.657 234.5,370.5C 235.08,366.19 235.414,361.857 235.5,357.5C 238.869,328.791 243.369,300.125 249,271.5C 249.408,269.59 250.575,268.59 252.5,268.5C 254.942,269.036 257.275,269.869 259.5,271C 260.894,271.956 261.561,273.289 261.5,275C 256.111,301.386 251.444,327.886 247.5,354.5 Z"/></g>
<g><path style="opacity:1" fill="#f7f7f7" d="M 422.5,353.5 C 420.666,354.494 418.999,354.494 417.5,353.5C 417.405,348.113 417.905,342.78 419,337.5C 423,322.833 427,308.167 431,293.5C 432.5,292 434,290.5 435.5,289C 443.918,285.747 447.085,288.58 445,297.5C 438.874,316.747 431.374,335.414 422.5,353.5 Z"/></g>
<g><path style="opacity:1" fill="#f8f8f8" d="M 221.5,356.5 C 218.517,373.699 216.85,391.032 216.5,408.5C 212.125,408.653 208.292,407.32 205,404.5C 204.333,399.833 204.333,395.167 205,390.5C 206.382,382.831 207.382,375.164 208,367.5C 201.836,376.425 195.169,376.758 188,368.5C 183.658,375.923 177.492,378.09 169.5,375C 167.21,372.921 165.543,370.421 164.5,367.5C 156.314,379.019 146.814,380.352 136,371.5C 132.538,365.945 130.371,359.945 129.5,353.5C 128.412,336.095 132.579,320.095 142,305.5C 146.316,299.428 152.149,296.094 159.5,295.5C 168.607,295.344 173.274,299.677 173.5,308.5C 177.211,307.846 179.211,309.346 179.5,313C 175.885,326.464 173.218,340.131 171.5,354C 171.383,357.664 172.049,361.164 173.5,364.5C 177.853,367.398 181.686,366.732 185,362.5C 183.842,341.61 186.842,321.277 194,301.5C 198.153,298.662 201.82,299.328 205,303.5C 202.043,316.68 199.376,330.013 197,343.5C 196.333,350.5 196.333,357.5 197,364.5C 197.689,365.357 198.522,366.023 199.5,366.5C 202.133,365.699 203.967,364.033 205,361.5C 207.551,357.065 209.551,352.399 211,347.5C 212.924,332.029 215.591,316.696 219,301.5C 219.5,300.5 220,299.5 220.5,298.5C 224.546,297.257 228.046,298.257 231,301.5C 231.414,306.53 231.081,311.53 230,316.5C 225.901,329.563 223.068,342.896 221.5,356.5 Z"/></g>
<g><path style="opacity:1" fill="#282828" d="M 157.5,304.5 C 158.822,304.33 159.989,304.663 161,305.5C 162.253,311.972 161.086,317.972 157.5,323.5C 159.543,325.509 161.543,327.509 163.5,329.5C 161.664,341.852 157.831,353.518 152,364.5C 147.872,368.885 144.872,368.218 143,362.5C 141.884,346.762 143.884,331.428 149,316.5C 150.952,311.74 153.786,307.74 157.5,304.5 Z"/></g>
<g><path style="opacity:1" fill="#292929" d="M 311.5,304.5 C 315.319,304.28 316.986,306.113 316.5,310C 316.209,315.168 314.542,319.834 311.5,324C 312.988,325.717 314.821,326.884 317,327.5C 316.482,340.233 313.149,352.233 307,363.5C 302.215,369.302 298.882,368.635 297,361.5C 295.974,343.296 299.308,325.963 307,309.5C 308.707,307.963 310.207,306.296 311.5,304.5 Z"/></g>
<g><path style="opacity:1" fill="#979797" d="M 354.5,336.5 C 354.198,339.059 354.532,341.393 355.5,343.5C 355.44,344.043 355.107,344.376 354.5,344.5C 353.2,341.691 353.2,339.024 354.5,336.5 Z"/></g>
<g><path style="opacity:0.996" fill="#232323" d="M 403.5,354.5 C 407.97,353.514 412.637,353.181 417.5,353.5C 418.999,354.494 420.666,354.494 422.5,353.5C 452.167,353.5 481.833,353.5 511.5,353.5C 511.5,369.167 511.5,384.833 511.5,400.5C 508.919,446.847 486.919,480.347 445.5,501C 430.849,506.582 415.849,510.082 400.5,511.5C 303.833,511.5 207.167,511.5 110.5,511.5C 64.1529,508.919 30.6529,486.919 10,445.5C 4.41844,430.849 0.918444,415.849 -0.5,400.5C -0.5,384.833 -0.5,369.167 -0.5,353.5C 25.5,353.5 51.5,353.5 77.5,353.5C 76.7479,362.506 76.2479,371.506 76,380.5C 80.1996,384.224 84.1996,384.224 88,380.5C 89.6948,377.082 91.1948,373.582 92.5,370C 91.7679,368.235 90.4346,367.068 88.5,366.5C 89.5385,362.231 90.2051,357.898 90.5,353.5C 103.5,353.5 116.5,353.5 129.5,353.5C 130.371,359.945 132.538,365.945 136,371.5C 146.814,380.352 156.314,379.019 164.5,367.5C 165.543,370.421 167.21,372.921 169.5,375C 177.492,378.09 183.658,375.923 188,368.5C 195.169,376.758 201.836,376.425 208,367.5C 207.382,375.164 206.382,382.831 205,390.5C 204.333,395.167 204.333,399.833 205,404.5C 208.292,407.32 212.125,408.653 216.5,408.5C 216.85,391.032 218.517,373.699 221.5,356.5C 222.404,355.791 222.737,354.791 222.5,353.5C 226.833,353.5 231.167,353.5 235.5,353.5C 235.5,354.833 235.5,356.167 235.5,357.5C 235.414,361.857 235.08,366.19 234.5,370.5C 226.331,371.657 225.331,375.157 231.5,381C 234.376,381.438 237.043,382.438 239.5,384C 241.473,384.495 243.473,384.662 245.5,384.5C 245.5,382.5 245.5,380.5 245.5,378.5C 259.054,375.931 272.721,374.264 286.5,373.5C 286.285,369.734 284.951,366.4 282.5,363.5C 270.587,361.741 258.92,362.741 247.5,366.5C 247.002,362.575 247.002,358.575 247.5,354.5C 259.753,353.521 272.087,353.187 284.5,353.5C 284.623,363.734 288.956,371.567 297.5,377C 307.024,379.051 314.191,375.885 319,367.5C 324.817,378.395 332.15,379.395 341,370.5C 343.49,376.022 347.657,378.522 353.5,378C 355.909,367.203 358.743,356.369 362,345.5C 364.358,337.787 367.525,330.454 371.5,323.5C 371.833,324 372.167,324.5 372.5,325C 369.111,336.278 367.944,347.778 369,359.5C 371.375,374.59 379.542,379.423 393.5,374C 400.171,369.157 403.504,362.657 403.5,354.5 Z"/></g>
<g><path style="opacity:1" fill="#f5f5f5" d="M 414.5,360.5 C 426.143,360.958 428.476,365.792 421.5,375C 418.167,375.667 414.833,375.667 411.5,375C 407.049,369.09 408.049,364.257 414.5,360.5 Z"/></g>
</svg>
