<?xml version="1.0" encoding="UTF-8"?>
<!DOCTYPE svg PUBLIC "-//W3C//DTD SVG 1.1//EN" "http://www.w3.org/Graphics/SVG/1.1/DTD/svg11.dtd">
<svg xmlns="http://www.w3.org/2000/svg" version="1.1" width="512px" height="512px" style="shape-rendering:geometricPrecision; text-rendering:geometricPrecision; image-rendering:optimizeQuality; fill-rule:evenodd; clip-rule:evenodd" xmlns:xlink="http://www.w3.org/1999/xlink">
<g><path style="opacity:0.998" fill="#8f1c7d" d="M 67.5,-0.5 C 192.833,-0.5 318.167,-0.5 443.5,-0.5C 467.466,1.89357 486.299,12.8936 500,32.5C 505.771,43.3131 509.604,54.6465 511.5,66.5C 511.5,192.5 511.5,318.5 511.5,444.5C 506.139,483.861 483.806,506.194 444.5,511.5C 318.5,511.5 192.5,511.5 66.5,511.5C 27.1944,506.194 4.86104,483.861 -0.5,444.5C -0.5,318.5 -0.5,192.5 -0.5,66.5C 2.41074,38.107 16.7441,17.9404 42.5,6C 50.7616,3.01919 59.0949,0.852519 67.5,-0.5 Z"/></g>
<g><path style="opacity:1" fill="#fdfbfd" d="M 64.5,143.5 C 80.8367,143.333 97.1701,143.5 113.5,144C 134.058,148.615 143.891,161.449 143,182.5C 140.058,198.27 130.891,208.103 115.5,212C 107.167,212.333 98.8333,212.667 90.5,213C 90,213.5 89.5,214 89,214.5C 88.6667,225.167 88.3333,235.833 88,246.5C 87.5,247.667 86.6667,248.5 85.5,249C 78.1667,249.667 70.8333,249.667 63.5,249C 63,248.5 62.5,248 62,247.5C 61.3333,213.833 61.3333,180.167 62,146.5C 62.6979,145.309 63.5313,144.309 64.5,143.5 Z"/></g>
<g><path style="opacity:1" fill="#fdfcfd" d="M 293.5,145.5 C 302.682,145.173 311.682,145.507 320.5,146.5C 309.012,166.806 297.512,187.139 286,207.5C 285.966,221.594 285.299,235.594 284,249.5C 281.26,250.282 278.426,250.782 275.5,251C 272.423,255.808 269.09,260.475 265.5,265C 256.069,263.775 246.569,262.608 237,261.5C 207.572,263.923 189.572,279.589 183,308.5C 181.722,341.881 197.222,362.714 229.5,371C 262.481,373.019 283.647,358.185 293,326.5C 293.667,319.833 293.667,313.167 293,306.5C 292.409,302.118 290.909,298.118 288.5,294.5C 286.157,293.275 284.323,293.941 283,296.5C 270.333,313.833 257.667,331.167 245,348.5C 242.336,352.835 239.003,353.501 235,350.5C 224,336.833 213,323.167 202,309.5C 201.333,307.833 201.333,306.167 202,304.5C 204.973,300.026 208.14,295.693 211.5,291.5C 213.098,290.515 214.765,290.349 216.5,291C 222.786,298.408 228.953,305.908 235,313.5C 236.113,315.329 237.613,316.163 239.5,316C 253.333,297.5 267.167,279 281,260.5C 283.373,258.15 285.873,257.983 288.5,260C 313.818,284.448 320.318,313.281 308,346.5C 290.896,380.209 263.396,395.042 225.5,391C 180.29,379.431 159.457,350.264 163,303.5C 168.564,276.361 184.064,257.361 209.5,246.5C 210.881,241.802 209.881,237.635 206.5,234C 194.263,232.374 181.929,232.041 169.5,233C 166.505,237.963 163.505,242.963 160.5,248C 152.585,249.401 144.585,249.901 136.5,249.5C 136.351,246.393 136.851,243.393 138,240.5C 150.196,210.246 162.196,179.913 174,149.5C 174.785,147.714 175.951,146.214 177.5,145C 184.5,144.333 191.5,144.333 198.5,145C 199.333,145.833 200.167,146.667 201,147.5C 212.667,177.833 224.333,208.167 236,238.5C 236.903,239.701 238.069,240.535 239.5,241C 245.721,242.217 251.887,242.383 258,241.5C 258.667,229.833 258.667,218.167 258,206.5C 248.253,188.671 238.253,171.004 228,153.5C 226.259,150.691 225.092,147.691 224.5,144.5C 233.506,144.334 242.506,144.5 251.5,145C 252.667,146.167 253.833,147.333 255,148.5C 260.272,158.711 265.272,169.044 270,179.5C 270.689,180.357 271.522,181.023 272.5,181.5C 279.098,170.64 284.931,159.306 290,147.5C 290.816,146.177 291.983,145.511 293.5,145.5 Z"/></g>
<g><path style="opacity:1" fill="#c282b7" d="M 293.5,145.5 C 302.675,144.178 312.008,144.178 321.5,145.5C 321.376,146.107 321.043,146.44 320.5,146.5C 311.682,145.507 302.682,145.173 293.5,145.5 Z"/></g>
<g><path style="opacity:1" fill="#90207e" d="M 90.5,165.5 C 95.8437,165.334 101.177,165.501 106.5,166C 116.506,171.327 118.173,178.66 111.5,188C 110.167,188.667 108.833,189.333 107.5,190C 101.472,190.83 95.4724,190.664 89.5,189.5C 88.3682,182.217 88.2015,174.883 89,167.5C 89.7172,166.956 90.2172,166.289 90.5,165.5 Z"/></g>
<g><path style="opacity:1" fill="#90217e" d="M 187.5,179.5 C 189.284,180.574 190.451,182.24 191,184.5C 192.798,190.895 194.798,197.228 197,203.5C 197.758,205.769 197.591,207.936 196.5,210C 190.251,210.809 184.084,210.642 178,209.5C 179.843,199.134 183.01,189.134 187.5,179.5 Z"/></g>
<g><path style="opacity:1" fill="#fefcfd" d="M 61.5,265.5 C 70.5062,265.334 79.5062,265.5 88.5,266C 90.7089,267.873 92.5422,270.04 94,272.5C 103.907,289.567 114.407,306.233 125.5,322.5C 126.281,321.271 126.781,319.938 127,318.5C 127.333,301.5 127.667,284.5 128,267.5C 128.5,267 129,266.5 129.5,266C 136.833,265.333 144.167,265.333 151.5,266C 152,266.5 152.5,267 153,267.5C 153.826,301.542 153.659,335.542 152.5,369.5C 143.853,370.665 135.186,370.832 126.5,370C 113.361,349.548 100.361,329.048 87.5,308.5C 86.7492,309.376 86.2492,310.376 86,311.5C 85.6667,330.5 85.3333,349.5 85,368.5C 84.5,369 84,369.5 83.5,370C 76.1667,370.667 68.8333,370.667 61.5,370C 61,369.5 60.5,369 60,368.5C 59.3333,335.167 59.3333,301.833 60,268.5C 60.5133,267.473 61.0133,266.473 61.5,265.5 Z"/></g>
<g><path style="opacity:1" fill="#fdfcfd" d="M 312.5,266.5 C 320.84,266.334 329.173,266.5 337.5,267C 338.333,267.833 339.167,268.667 340,269.5C 346.95,290.351 354.283,311.018 362,331.5C 362.667,330.833 363.333,330.167 364,329.5C 370.07,308.958 376.736,288.624 384,268.5C 384.75,267.874 385.584,267.374 386.5,267C 394.5,266.333 402.5,266.333 410.5,267C 411.574,267.739 412.241,268.739 412.5,270C 408.196,281.744 404.196,293.578 400.5,305.5C 402.385,314.99 405.552,323.99 410,332.5C 418.278,311.61 426.278,290.61 434,269.5C 434.5,269 435,268.5 435.5,268C 444.167,267.333 452.833,267.333 461.5,268C 462.476,270.147 462.309,272.314 461,274.5C 447.724,306.053 434.724,337.719 422,369.5C 421.097,370.701 419.931,371.535 418.5,372C 412.167,372.667 405.833,372.667 399.5,372C 394.918,362.068 390.252,352.235 385.5,342.5C 381.453,352.144 377.12,361.644 372.5,371C 365.167,373 357.833,373 350.5,371C 337.232,337.125 324.232,303.125 311.5,269C 311.743,268.098 312.077,267.265 312.5,266.5 Z"/></g>
</svg>
