<?xml version="1.0" encoding="UTF-8"?>
<!DOCTYPE svg PUBLIC "-//W3C//DTD SVG 1.1//EN" "http://www.w3.org/Graphics/SVG/1.1/DTD/svg11.dtd">
<svg xmlns="http://www.w3.org/2000/svg" version="1.1" width="300px" height="300px" style="shape-rendering:geometricPrecision; text-rendering:geometricPrecision; image-rendering:optimizeQuality; fill-rule:evenodd; clip-rule:evenodd" xmlns:xlink="http://www.w3.org/1999/xlink">
<g><path style="opacity:1" fill="#fc444c" d="M 58.5,9.5 C 64.5092,9.33385 70.5092,9.50051 76.5,10C 126.138,35.9984 175.805,35.9984 225.5,10C 244.518,6.67807 255.852,14.5114 259.5,33.5C 258.83,36.8461 258.163,40.1794 257.5,43.5C 270.7,39.6932 281.2,43.3599 289,54.5C 289.667,63.1667 289.667,71.8333 289,80.5C 269.594,118.06 266.26,157.06 279,197.5C 281.946,205.002 285.279,212.335 289,219.5C 289.667,228.167 289.667,236.833 289,245.5C 280.545,256.43 269.712,259.93 256.5,256C 261.624,270.614 257.291,281.614 243.5,289C 236.833,289.667 230.167,289.667 223.5,289C 188.053,269.642 150.72,264.975 111.5,275C 99.7103,278.562 88.377,283.228 77.5,289C 57.2987,293.581 45.6321,285.748 42.5,265.5C 42.4492,262.334 43.1159,259.334 44.5,256.5C 29.4113,260.215 17.9113,255.215 10,241.5C 9.33333,235.833 9.33333,230.167 10,224.5C 32.2896,183.335 35.6229,140.668 20,96.5C 16.9395,89.3786 13.6062,82.3786 10,75.5C 6.36184,61.9628 10.5285,51.7961 22.5,45C 29.6256,41.9121 36.7922,41.7454 44,44.5C 39.9905,29.184 44.8238,17.5174 58.5,9.5 Z"/></g>
<g><path style="opacity:1" fill="#fcacae" d="M 68.5,67.5 C 68.1667,67.5 67.8333,67.5 67.5,67.5C 65.4005,66.4829 64.4005,65.1495 64.5,63.5C 66.188,64.5213 67.5213,65.8546 68.5,67.5 Z"/></g>
<g><path style="opacity:1" fill="#fffbfb" d="M 67.5,67.5 C 67.8333,67.5 68.1667,67.5 68.5,67.5C 89.9602,85.1221 111.294,102.955 132.5,121C 143.898,130.573 155.565,130.906 167.5,122C 188.833,104 210.167,86 231.5,68C 232.167,67.3333 232.833,67.3333 233.5,68C 215.333,89.5 197.167,111 179,132.5C 170.068,144.727 170.401,156.727 180,168.5C 198.333,189.833 216.667,211.167 235,232.5C 235.667,233.167 235.667,233.833 235,234.5C 213.167,216 191.333,197.5 169.5,179C 158.354,169.81 146.687,169.143 134.5,177C 113.627,194.711 92.6268,212.211 71.5,229.5C 70.8333,229.5 70.5,229.167 70.5,228.5C 87.6587,208.198 104.825,187.864 122,167.5C 131.022,156.994 131.689,145.994 124,134.5C 104.956,112.294 86.1226,89.9605 67.5,67.5 Z"/></g>
<g><path style="opacity:1" fill="#feb9ba" d="M 70.5,228.5 C 70.5,229.167 70.8333,229.5 71.5,229.5C 70.4382,231.757 68.7715,232.923 66.5,233C 67.7332,231.333 69.0665,229.833 70.5,228.5 Z"/></g>
</svg>
